# xmcd
#
# Track frame offsets: 
#        150
#        13959
#        35441
#        65000
#        80718
#        104541
#        124899
#
# Disc length: 2128 seconds
#
# Revision: 0
# Processed by: cddbd v1.5.2PL0 Copyright (c) Steve Scherf et al.
# Submitted via: ExactAudioCopyFreeDBPlugin 1.0
#
DISCID=62084e07
DTITLE=Barrelhouse - Who's Missing
DYEAR=1976
DGENRE=Blues
TTITLE0=All I Want
TTITLE1=Right On Time
TTITLE2=Every Night There's Another Dream
TTITLE3=High Speed Lady Trucker
TTITLE4=Fallin' Down
TTITLE5=Drink Your Wine
TTITLE6=Shake 'em On Down
EXTD=
EXTT0=
EXTT1=
EXTT2=
EXTT3=
EXTT4=
EXTT5=
EXTT6=
PLAYORDER=
